<?xml version="1.0" encoding="UTF-8" standalone="no"?>
<!-- Created with Inkscape (http://www.inkscape.org/) -->

<svg
   width="55mm"
   height="55mm"
   viewBox="0 0 54.999999 55"
   version="1.1"
   id="svg25722"
   inkscape:version="1.1.1 (3bf5ae0d25, 2021-09-20)"
   sodipodi:docname="glight.svg"
   xmlns:inkscape="http://www.inkscape.org/namespaces/inkscape"
   xmlns:sodipodi="http://sodipodi.sourceforge.net/DTD/sodipodi-0.dtd"
   xmlns="http://www.w3.org/2000/svg"
   xmlns:svg="http://www.w3.org/2000/svg">
  <sodipodi:namedview
     id="namedview25724"
     pagecolor="#ffffff"
     bordercolor="#666666"
     borderopacity="1.0"
     inkscape:pageshadow="2"
     inkscape:pageopacity="0.0"
     inkscape:pagecheckerboard="0"
     inkscape:document-units="mm"
     showgrid="false"
     fit-margin-top="0"
     fit-margin-left="0"
     fit-margin-right="0"
     fit-margin-bottom="0"
     inkscape:zoom="0.99887801"
     inkscape:cx="170.19095"
     inkscape:cy="94.105585"
     inkscape:window-width="1366"
     inkscape:window-height="711"
     inkscape:window-x="0"
     inkscape:window-y="0"
     inkscape:window-maximized="1"
     inkscape:current-layer="layer1" />
  <defs
     id="defs25719" />
  <g
     inkscape:label="Layer 1"
     inkscape:groupmode="layer"
     id="layer1"
     transform="translate(-76.591104,-110.10042)">
    <path
       style="fill:#e2c437;fill-opacity:1;fill-rule:evenodd;stroke:none;stroke-width:0.288629px;stroke-linecap:butt;stroke-linejoin:miter;stroke-opacity:1"
       d="m 117.6358,162.96707 c 3.18812,-0.4888 6.78497,-2.36855 8.57372,-4.28817 2.78829,-2.99229 4.71996,-6.73102 4.90119,-9.38223 0.17271,-2.52648 -0.3995,-5.99869 -2.8505,-7.42449 -2.451,-1.42578 -8.33707,-0.9636 -11.86538,1.83294 -3.69197,2.92626 -5.60398,6.96224 -6.06867,9.18539 -0.68169,3.26141 -0.44835,5.64647 1.46278,7.85237 1.1978,1.38254 3.78573,2.54018 5.84686,2.22419 z"
       id="path1394-0"
       sodipodi:nodetypes="ssssssss" />
    <ellipse
       style="fill:#000000;fill-opacity:1;stroke:none;stroke-width:0.347752;stroke-linejoin:round;stroke-miterlimit:4;stroke-dasharray:none;stroke-dashoffset:0;stroke-opacity:1"
       id="path3843-63"
       cx="186.8199"
       cy="47.833614"
       rx="2.0384057"
       ry="2.5952642"
       transform="matrix(0.77843188,0.62772908,-0.63102051,0.77576615,0,0)" />
    <ellipse
       style="fill:#000000;fill-opacity:1;stroke:none;stroke-width:0.358649;stroke-linejoin:round;stroke-miterlimit:4;stroke-dasharray:none;stroke-dashoffset:0;stroke-opacity:1"
       id="path3843-3-2"
       cx="193.51207"
       cy="46.844437"
       rx="2.1022773"
       ry="2.6765842"
       transform="matrix(0.77843188,0.62772908,-0.63102051,0.77576615,0,0)" />
    <ellipse
       style="fill:#000000;fill-opacity:1;stroke:none;stroke-width:0.353352;stroke-linejoin:round;stroke-miterlimit:4;stroke-dasharray:none;stroke-dashoffset:0;stroke-opacity:1"
       id="path3843-6-0"
       cx="192.73019"
       cy="37.821548"
       rx="2.0712318"
       ry="2.6370575"
       transform="matrix(0.77843188,0.62772908,-0.63102051,0.77576615,0,0)" />
    <path
       id="path7014-61"
       style="fill:#e2c437;fill-opacity:1;fill-rule:evenodd;stroke:none;stroke-width:0.288629px;stroke-linecap:butt;stroke-linejoin:miter;stroke-opacity:1"
       d="m 106.71521,132.90047 6.97821,6.39822 4.65483,-2.28459 -6.59301,-6.00392 c -0.12778,0.0185 -0.25601,0.0385 -0.3843,0.0614 -1.02625,0.18328 -2.06205,0.52012 -3.05355,0.97282 -0.49573,0.22636 -0.98038,0.4817 -1.44722,0.76132 -0.0583,0.0349 -0.11643,0.0703 -0.17421,0.10604"
       sodipodi:nodetypes="cccccssc" />
    <path
       id="path7014-6-5"
       style="fill:#06082b;fill-opacity:1;fill-rule:evenodd;stroke:none;stroke-width:0.288629px;stroke-linecap:butt;stroke-linejoin:miter;stroke-opacity:1"
       d="m 118.34825,137.0141 -4.57194,2.23292 -6.97819,-6.39822 c -0.0578,0.0358 -0.21737,0.13473 -0.2746,0.17118 -0.11436,0.0729 -0.22752,0.14718 -0.33935,0.22288 -0.22366,0.15139 -0.44203,0.30821 -0.65424,0.46996 -3.55308,2.70809 -5.37826,6.02101 -5.826152,8.07753 -0.657115,3.01694 -0.949221,4.32665 0.130252,6.66318 l 12.18915,12.6125 c -1.91113,-2.2059 -2.37871,-4.91411 -1.69698,-8.17553 0.4647,-2.22315 2.3767,-6.25913 6.06867,-9.18539 3.5283,-2.79654 9.41438,-3.25872 11.86537,-1.83294 0.30639,0.17822 0.66542,0.43281 0.9153,0.66915 l -12.19353,-10.42761 c -0.77221,-0.58076 -1.66185,-0.93293 -2.615,-1.09409 -0.47656,-0.0806 -0.96901,-0.11342 -1.47061,-0.1032 -0.25077,0.005 -0.50387,0.0209 -0.75838,0.047 -0.12725,0.0131 -0.25487,0.0286 -0.38275,0.0466 z"
       sodipodi:nodetypes="cccsscsccsssccssscc" />
    <path
       style="fill:#e2de31;fill-opacity:1;fill-rule:evenodd;stroke:none;stroke-width:0.288629px;stroke-linecap:butt;stroke-linejoin:miter;stroke-opacity:1"
       d="m 100.52771,118.65679 c -0.31349,0.14772 -1.054577,0.53211 -1.054577,0.53211 0,0 0.607187,0.19105 0.803067,0.42008 0.19585,0.22904 0.40081,0.75122 0.40081,0.75122 0,0 0.7676,0.36305 0.84129,0.61032 0.0737,0.24727 0.46957,1.2219 0.46957,1.2219 0,0 0.66696,0.12437 1.01782,0.59267 0.35086,0.46832 0.3312,1.16751 0.3312,1.16751 0,0 0.98477,0.55202 1.42821,0.95823 0.44343,0.40622 0.95124,1.92145 0.95124,1.92145 l 0.11929,2.92453 4.50931,-1.62936 -0.62564,-0.42621 c 0,0 -0.0974,-2.13238 -0.42314,-2.69752 -0.32576,-0.56513 -0.72671,-1.11716 -1.18289,-1.54507 -0.45618,-0.42792 -1.32521,-0.71577 -1.32521,-0.71577 0,0 -0.0443,-0.78714 -0.40792,-1.2029 -0.36366,-0.41576 -1.11111,-0.60049 -1.11111,-0.60049 0,0 -0.0472,-0.73348 -0.35841,-1.21965 -0.3111,-0.48618 -0.89748,-0.54147 -0.89748,-0.54147 0,0 -0.26445,-1.14195 -0.77265,-1.37277 -0.58834,-0.009 -1.07337,0.22539 -1.24751,0.29911 z"
       id="path7148-1-4"
       sodipodi:nodetypes="ccscscscsccccsscscscccc" />
    <path
       id="path7150-7-7"
       style="fill:#afad64;fill-opacity:1;fill-rule:evenodd;stroke:none;stroke-width:0.288629px;stroke-linecap:butt;stroke-linejoin:miter;stroke-opacity:1"
       d="m 99.560414,122.91256 -0.08727,-3.72367 c 0,0 0.607176,0.19106 0.803056,0.42009 0.19585,0.22904 0.40081,0.75122 0.40081,0.75122 0,0 0.7676,0.36305 0.84129,0.61032 0.0737,0.24727 0.46957,1.2219 0.46957,1.2219 0,0 0.66696,0.12437 1.01782,0.59267 0.35086,0.46832 0.3312,1.16751 0.3312,1.16751 0,0 0.98477,0.55202 1.42821,0.95823 0.44343,0.40622 0.95124,1.92145 0.95124,1.92145 l 0.11929,2.92453 z"
       sodipodi:nodetypes="ccscscscsccc" />
    <path
       id="path7150-6-6"
       style="fill:#2c8b1c;fill-opacity:1;fill-rule:evenodd;stroke:none;stroke-width:0.288629px;stroke-linecap:butt;stroke-linejoin:miter;stroke-opacity:1"
       d="m 120.17101,131.21401 c -0.44496,-0.40355 -1.0154,-0.8041 -1.72306,-1.2168 -2.83065,-1.6508 -9.62831,-1.11583 -13.70299,2.12175 -4.26369,3.38779 -6.471712,8.06038 -7.008296,10.63423 -0.787183,3.77589 0.327178,7.69581 1.482936,9.04535 L 86.762502,138.77827 c -2.143331,-2.258 -2.093269,-4.49518 -1.42954,-7.85943 0.560268,-2.83985 2.567882,-6.37632 6.715555,-9.37783 1.981888,-1.43421 6.017998,-3.02349 8.496503,-2.87951 -0.33078,0.14305 -1.071887,0.5274 -1.071887,0.5274 l 0.08727,3.72366 6.275247,6.84425 4.50933,-1.62937 -0.62565,-0.4262 c 0,0 -0.0974,-2.13238 -0.42314,-2.69752 -0.32576,-0.56514 -0.7267,-1.11717 -1.18289,-1.54507 -0.45617,-0.42792 -1.3252,-0.71577 -1.3252,-0.71577 0,0 -0.0443,-0.78716 -0.40793,-1.20291 -0.36366,-0.41575 -1.1111,-0.60049 -1.1111,-0.60049 0,0 -0.0472,-0.73348 -0.35841,-1.21965 -0.31109,-0.48619 -0.89749,-0.54146 -0.89749,-0.54146 2.42174,0.57031 3.25319,1.57695 3.25319,1.57695 z"
       sodipodi:nodetypes="csssccssccccccsscscsccc" />
    <path
       id="path2036-3-6-5"
       style="fill:#1ed220;fill-opacity:1;fill-rule:evenodd;stroke:none;stroke-width:0.272276px;stroke-linecap:butt;stroke-linejoin:miter;stroke-opacity:1"
       d="m 116.91406,132.18735 c -0.77223,-0.58075 -1.66186,-0.93292 -2.61501,-1.09408 -0.47657,-0.0806 -0.96901,-0.11344 -1.4706,-0.1032 -0.25078,0.005 -0.50388,0.0209 -0.75838,0.047 -0.12727,0.0131 -0.25488,0.0286 -0.38276,0.0466 m -1e-5,0 c -0.12778,0.0185 -0.23676,0.0273 -0.36502,0.0502 -1.02625,0.18328 -2.06206,0.52011 -3.05354,0.97282 -0.49574,0.22636 -0.98039,0.4817 -1.44723,0.76132 -0.0583,0.0349 -0.11641,0.0703 -0.18384,0.11168 -0.0674,0.0413 -0.12486,0.0773 -0.18208,0.11389 -0.11436,0.0729 -0.22752,0.14718 -0.33936,0.22286 -0.22366,0.1514 -0.44202,0.30822 -0.65424,0.46997 -3.55307,2.70809 -5.30647,6.00528 -5.754361,8.06178 -0.657094,3.01695 -0.953039,4.26876 0.12639,6.60529 l 5.825211,6.02661 c -2.38031,0.3658 -4.91761,-0.96149 -6.300956,-2.56218 -2.207179,-2.55394 -2.923838,-7.14271 -2.136649,-10.91859 0.536595,-2.57384 2.632575,-6.12044 6.896275,-9.50823 4.07466,-3.23759 11.30861,-3.66791 14.13925,-2.01713 2.83063,1.65079 3.58876,3.70399 3.38934,6.62903 l -4.73245,-3.91569"
       sodipodi:nodetypes="csssccsscsssssccsssscc" />
    <path
       id="path8650-0-5"
       style="fill:#9a93b3;fill-opacity:1;fill-rule:evenodd;stroke:none;stroke-width:0.288629px;stroke-linecap:butt;stroke-linejoin:miter;stroke-opacity:1"
       d="m 81.616353,130.85266 c -1.484332,-11.21353 7.555391,-15.64119 15.386763,-14.65155 l 4.960134,1.90432 c -0.40938,0.18663 -1.12202,0.40364 -1.43552,0.55136 -2.495829,-0.1487 -6.366816,1.52324 -8.348715,2.95745 -4.147662,3.00151 -6.295357,6.66108 -6.821995,9.41612 -0.526639,2.75504 -0.583274,4.67843 0.771963,6.99172 -1.461337,-2.35059 -3.220096,-5.09035 -4.51263,-7.16942 z"
       sodipodi:nodetypes="ccccszcc" />
    <path
       id="path8648-6-4"
       style="fill:#d1c7ff;fill-opacity:1;fill-rule:evenodd;stroke:none;stroke-width:0.288629px;stroke-linecap:butt;stroke-linejoin:miter;stroke-opacity:1"
       d="m 81.616353,130.85266 c -1.484332,-11.21353 7.554325,-15.59702 15.386763,-14.65155 l -4.972663,-1.85791 c -8.686451,0.49776 -13.388484,3.84016 -12.917755,12.4592 0.967616,1.55642 1.536029,2.49385 2.503655,4.05026 z"
       sodipodi:nodetypes="ccccc" />
    <path
       id="path8650-6-7"
       style="fill:#9a93b3;fill-opacity:1;fill-rule:evenodd;stroke:none;stroke-width:0.288629px;stroke-linecap:butt;stroke-linejoin:miter;stroke-opacity:1"
       d="m 88.336015,112.88252 c -8.500604,0.009 -11.307025,3.19025 -11.025679,10.99734 l 1.802362,2.92254 c -0.470729,-8.61904 4.231304,-11.96144 12.967588,-12.43936 z"
       sodipodi:nodetypes="ccccc" />
  </g>
</svg>
